<?xml version="1.0" encoding="utf-8"?>
<!-- Generator: Adobe Illustrator 23.0.2, SVG Export Plug-In . SVG Version: 6.00 Build 0)  -->
<svg version="1.1" id="Layer_1" xmlns="http://www.w3.org/2000/svg" xmlns:xlink="http://www.w3.org/1999/xlink" x="0px" y="0px"
	 viewBox="0 0 220 73" style="enable-background:new 0 0 220 73;" xml:space="preserve">
<style type="text/css">
	.st0{fill:#020202;}
	.st1{clip-path:url(#SVGID_3_);fill:#020202;}
	.st2{clip-path:url(#SVGID_5_);fill:#020202;}
	.st3{clip-path:url(#SVGID_7_);fill:#020202;}
	.st4{clip-path:url(#SVGID_9_);fill:#020202;}
	.st5{clip-path:url(#SVGID_11_);fill:#020202;}
	.st6{clip-path:url(#SVGID_13_);fill:#020202;}
	.st7{clip-path:url(#SVGID_15_);fill:#020202;}
	.st8{clip-path:url(#SVGID_17_);fill:#020202;}
	.st9{clip-path:url(#SVGID_19_);fill:#020202;}
	.st10{clip-path:url(#SVGID_21_);fill:#020202;}
	.st11{clip-path:url(#SVGID_23_);fill:#020202;}
	.st12{clip-path:url(#SVGID_25_);fill:#020202;}
	.st13{clip-path:url(#SVGID_27_);fill:#020202;}
	.st14{clip-path:url(#SVGID_29_);fill:#020202;}
	.st15{clip-path:url(#SVGID_31_);fill:#020202;}
	.st16{clip-path:url(#SVGID_33_);fill:#020202;}
	.st17{clip-path:url(#SVGID_35_);fill:#020202;}
	.st18{clip-path:url(#SVGID_37_);fill:#020202;}
	.st19{clip-path:url(#SVGID_39_);fill:#020202;}
	.st20{clip-path:url(#SVGID_41_);fill:#020202;}
	.st21{clip-path:url(#SVGID_43_);fill:#020202;}
	.st22{clip-path:url(#SVGID_45_);fill:#020202;}
	.st23{clip-path:url(#SVGID_47_);fill:#020202;}
	.st24{clip-path:url(#SVGID_49_);fill:#020202;}
	.st25{clip-path:url(#SVGID_51_);fill:#020202;}
	.st26{clip-path:url(#SVGID_53_);fill:#020202;}
	.st27{clip-path:url(#SVGID_55_);fill:#020202;}
	.st28{clip-path:url(#SVGID_57_);fill:#020202;}
	.st29{clip-path:url(#SVGID_59_);fill:#020202;}
	.st30{clip-path:url(#SVGID_61_);fill:#020202;}
	.st31{clip-path:url(#SVGID_63_);fill:#020202;}
	.st32{clip-path:url(#SVGID_65_);fill:#020202;}
	.st33{clip-path:url(#SVGID_67_);fill:#020202;}
	.st34{clip-path:url(#SVGID_69_);fill:#020202;}
	.st35{clip-path:url(#SVGID_71_);fill:#020202;}
	.st36{clip-path:url(#SVGID_73_);fill:#020202;}
	.st37{clip-path:url(#SVGID_75_);fill:#020202;}
	.st38{clip-path:url(#SVGID_77_);fill:#020202;}
	.st39{clip-path:url(#SVGID_79_);fill:#020202;}
	.st40{clip-path:url(#SVGID_81_);fill:#020202;}
	.st41{clip-path:url(#SVGID_83_);fill:#020202;}
	.st42{clip-path:url(#SVGID_85_);fill:#020202;}
	.st43{clip-path:url(#SVGID_87_);fill:#020202;}
	.st44{clip-path:url(#SVGID_89_);fill:#020202;}
	.st45{clip-path:url(#SVGID_91_);fill:#020202;}
	.st46{clip-path:url(#SVGID_93_);fill:#020202;}
	.st47{clip-path:url(#SVGID_95_);fill:#020202;}
	.st48{clip-path:url(#SVGID_97_);fill:#020202;}
	.st49{clip-path:url(#SVGID_99_);fill:#020202;}
	.st50{clip-path:url(#SVGID_101_);fill:#020202;}
	.st51{clip-path:url(#SVGID_103_);fill:#020202;}
	.st52{clip-path:url(#SVGID_105_);fill:#020202;}
	.st53{clip-path:url(#SVGID_107_);fill:#020202;}
	.st54{clip-path:url(#SVGID_109_);fill:#020202;}
	.st55{clip-path:url(#SVGID_111_);fill:#020202;}
	.st56{clip-path:url(#SVGID_113_);fill:#020202;}
	.st57{clip-path:url(#SVGID_115_);fill:#020202;}
	.st58{clip-path:url(#SVGID_117_);fill:#020202;}
	.st59{clip-path:url(#SVGID_119_);fill:#020202;}
	.st60{clip-path:url(#SVGID_121_);fill:#020202;}
	.st61{clip-path:url(#SVGID_123_);fill:#020202;}
	.st62{clip-path:url(#SVGID_125_);fill:#020202;}
	.st63{clip-path:url(#SVGID_127_);fill:#020202;}
	.st64{clip-path:url(#SVGID_129_);fill:#020202;}
	.st65{clip-path:url(#SVGID_131_);fill:#020202;}
	.st66{clip-path:url(#SVGID_133_);fill:#020202;}
	.st67{fill:#8FC04E;stroke:#8FC04E;stroke-miterlimit:10;}
	.st68{fill:#8FC04E;}
	.st69{font-family:'HelveticaRounded-Bold';}
	.st70{font-size:25.7678px;}
</style>
<g>
	<g id="XMLID_1426_">
		<g id="XMLID_1031_">
			<g id="XMLID_1016_">
				<g id="XMLID_1032_">
					<path class="st0" d="M69.3,30.3V42c5.7,1,15.8,3.5,24.7,9c0,0-6.2-5.5-21.4-9.5V30.3l-16.2-8.9v1.8L69.3,30.3z"/>
				</g>
				<g id="XMLID_1035_">
					<path class="st0" d="M13.5,63.1c0-9.4,18.2-17.1,40.8-17.4c-0.5,0-0.9,0-1.4,0c-23.3,0-42.2,7.8-42.2,17.4
						c0,1.1,0.2,2.2,0.7,3.2c1.8,2.2,4.6,4.2,8.3,5.9C15.8,69.6,13.5,66.5,13.5,63.1z"/>
				</g>
			</g>
			<g id="XMLID_1030_">
				<g>
					<g>
						<path id="SVGID_1_" class="st0" d="M52.8,43.6c13.7,0,25.9,2.5,34.3,6.4c-4.7-3.2-11.7-5.8-20-7.3V31.9l-10.3-5.6v14.9
							c-1.6-0.1-3.3-0.2-5-0.3V19.4l-10.3-5.8V41c-1.7,0.1-3.4,0.2-5,0.4v-36L26.2,0.8v42.4C12.1,46.4,2.5,52.6,2.5,59.8
							c0,4.8,4.3,9.1,11.4,12.4c-4.2-2.9-6.7-6.2-6.7-9.8C7.2,52,27.6,43.6,52.8,43.6z"/>
					</g>
					<g>
						<defs>
							<path id="SVGID_2_" d="M52.8,43.6c13.7,0,25.9,2.5,34.3,6.4c-4.7-3.2-11.7-5.8-20-7.3V31.9l-10.3-5.6v14.9
								c-1.6-0.1-3.3-0.2-5-0.3V19.4l-10.3-5.8V41c-1.7,0.1-3.4,0.2-5,0.4v-36L26.2,0.8v42.4C12.1,46.4,2.5,52.6,2.5,59.8
								c0,4.8,4.3,9.1,11.4,12.4c-4.2-2.9-6.7-6.2-6.7-9.8C7.2,52,27.6,43.6,52.8,43.6z"/>
						</defs>
						<clipPath id="SVGID_3_">
							<use xlink:href="#SVGID_2_"  style="overflow:visible;"/>
						</clipPath>
						<rect x="2.5" y="0.8" class="st1" width="84.7" height="71.4"/>
					</g>
					<g>
						<defs>
							<path id="SVGID_4_" d="M52.8,43.6c13.7,0,25.9,2.5,34.3,6.4c-4.7-3.2-11.7-5.8-20-7.3V31.9l-10.3-5.6v14.9
								c-1.6-0.1-3.3-0.2-5-0.3V19.4l-10.3-5.8V41c-1.7,0.1-3.4,0.2-5,0.4v-36L26.2,0.8v42.4C12.1,46.4,2.5,52.6,2.5,59.8
								c0,4.8,4.3,9.1,11.4,12.4c-4.2-2.9-6.7-6.2-6.7-9.8C7.2,52,27.6,43.6,52.8,43.6z"/>
						</defs>
						<clipPath id="SVGID_5_">
							<use xlink:href="#SVGID_4_"  style="overflow:visible;"/>
						</clipPath>
						<path class="st2" d="M87.9,2.4v44.5v5.9h2.4c-1,0.6-1.9,1.2-2.9,1.8c-4,2.3-8.2,4.2-12.7,5.8c-9,3.2-18.8,4.9-29.1,4.9
							s-20.2-1.8-29.1-4.9c-4.5-1.6-8.7-3.5-12.7-5.8c-2-1.1-3.9-2.3-5.8-3.6h3.8V0.1h86.1V2.4z"/>
					</g>
					<g>
						<defs>
							<path id="SVGID_6_" d="M52.8,43.6c13.7,0,25.9,2.5,34.3,6.4c-4.7-3.2-11.7-5.8-20-7.3V31.9l-10.3-5.6v14.9
								c-1.6-0.1-3.3-0.2-5-0.3V19.4l-10.3-5.8V41c-1.7,0.1-3.4,0.2-5,0.4v-36L26.2,0.8v42.4C12.1,46.4,2.5,52.6,2.5,59.8
								c0,4.8,4.3,9.1,11.4,12.4c-4.2-2.9-6.7-6.2-6.7-9.8C7.2,52,27.6,43.6,52.8,43.6z"/>
						</defs>
						<clipPath id="SVGID_7_">
							<use xlink:href="#SVGID_6_"  style="overflow:visible;"/>
						</clipPath>
						<path class="st3" d="M87.9,2.4v43.8v4h4.5c-1.8,1.3-3.7,2.5-5.7,3.6c-3.9,2.2-8.1,4.1-12.5,5.7c-8.8,3.1-18.5,4.9-28.7,4.9
							s-19.9-1.7-28.7-4.9C12.4,58,8.2,56,4.3,53.8c-2-1.1-3.9-2.3-5.7-3.6h3.1V0.1h86.1v2.3H87.9z"/>
					</g>
					<g>
						<defs>
							<path id="SVGID_8_" d="M52.8,43.6c13.7,0,25.9,2.5,34.3,6.4c-4.7-3.2-11.7-5.8-20-7.3V31.9l-10.3-5.6v14.9
								c-1.6-0.1-3.3-0.2-5-0.3V19.4l-10.3-5.8V41c-1.7,0.1-3.4,0.2-5,0.4v-36L26.2,0.8v42.4C12.1,46.4,2.5,52.6,2.5,59.8
								c0,4.8,4.3,9.1,11.4,12.4c-4.2-2.9-6.7-6.2-6.7-9.8C7.2,52,27.6,43.6,52.8,43.6z"/>
						</defs>
						<clipPath id="SVGID_9_">
							<use xlink:href="#SVGID_8_"  style="overflow:visible;"/>
						</clipPath>
						<path class="st4" d="M87.9,2.4v43.1v3.9h3.8c-1.8,1.2-3.7,2.4-5.6,3.5c-3.9,2.2-8,4.1-12.3,5.6c-8.7,3.1-18.2,4.8-28.2,4.8
							S26,61.6,17.4,58.5c-4.3-1.5-8.5-3.4-12.3-5.6c-1.9-1.1-3.8-2.3-5.6-3.5h2.4V0.1H88L87.9,2.4L87.9,2.4z"/>
					</g>
					<g>
						<defs>
							<path id="SVGID_10_" d="M52.8,43.6c13.7,0,25.9,2.5,34.3,6.4c-4.7-3.2-11.7-5.8-20-7.3V31.9l-10.3-5.6v14.9
								c-1.6-0.1-3.3-0.2-5-0.3V19.4l-10.3-5.8V41c-1.7,0.1-3.4,0.2-5,0.4v-36L26.2,0.8v42.4C12.1,46.4,2.5,52.6,2.5,59.8
								c0,4.8,4.3,9.1,11.4,12.4c-4.2-2.9-6.7-6.2-6.7-9.8C7.2,52,27.6,43.6,52.8,43.6z"/>
						</defs>
						<clipPath id="SVGID_11_">
							<use xlink:href="#SVGID_10_"  style="overflow:visible;"/>
						</clipPath>
						<path class="st5" d="M87.9,2.4v42.4v3.9H91c-1.8,1.2-3.6,2.4-5.5,3.5c-3.8,2.2-7.9,4-12.1,5.5c-8.5,3-17.9,4.7-27.8,4.7
							s-19.2-1.7-27.8-4.7c-4.3-1.5-8.3-3.4-12.1-5.5C3.8,51.1,2,50,0.2,48.7h1.6V0.1h86.1V2.4z"/>
					</g>
					<g>
						<defs>
							<path id="SVGID_12_" d="M52.8,43.6c13.7,0,25.9,2.5,34.3,6.4c-4.7-3.2-11.7-5.8-20-7.3V31.9l-10.3-5.6v14.9
								c-1.6-0.1-3.3-0.2-5-0.3V19.4l-10.3-5.8V41c-1.7,0.1-3.4,0.2-5,0.4v-36L26.2,0.8v42.4C12.1,46.4,2.5,52.6,2.5,59.8
								c0,4.8,4.3,9.1,11.4,12.4c-4.2-2.9-6.7-6.2-6.7-9.8C7.2,52,27.6,43.6,52.8,43.6z"/>
						</defs>
						<clipPath id="SVGID_13_">
							<use xlink:href="#SVGID_12_"  style="overflow:visible;"/>
						</clipPath>
						<path class="st6" d="M87.9,2.4v41.8V48h2.3c-1.7,1.2-3.5,2.3-5.4,3.4c-3.7,2.1-7.7,4-11.9,5.4c-8.4,3-17.6,4.6-27.3,4.6
							s-18.9-1.7-27.3-4.6C14,55.4,10,53.5,6.2,51.4c-1.9-1.1-3.7-2.2-5.4-3.4h0.9V0.1h86.1v2.3H87.9z"/>
					</g>
					<g>
						<defs>
							<path id="SVGID_14_" d="M52.8,43.6c13.7,0,25.9,2.5,34.3,6.4c-4.7-3.2-11.7-5.8-20-7.3V31.9l-10.3-5.6v14.9
								c-1.6-0.1-3.3-0.2-5-0.3V19.4l-10.3-5.8V41c-1.7,0.1-3.4,0.2-5,0.4v-36L26.2,0.8v42.4C12.1,46.4,2.5,52.6,2.5,59.8
								c0,4.8,4.3,9.1,11.4,12.4c-4.2-2.9-6.7-6.2-6.7-9.8C7.2,52,27.6,43.6,52.8,43.6z"/>
						</defs>
						<clipPath id="SVGID_15_">
							<use xlink:href="#SVGID_14_"  style="overflow:visible;"/>
						</clipPath>
						<path class="st7" d="M87.9,2.4v41.1v3.7h1.6c-1.7,1.2-3.5,2.3-5.3,3.3c-3.7,2.1-7.6,3.9-11.7,5.4c-8.3,2.9-17.4,4.6-26.9,4.6
							c-19.1,0-36.4-6.5-48.9-17h5.1V0.1h86.1C87.9,0.1,87.9,2.4,87.9,2.4z"/>
					</g>
					<g>
						<defs>
							<path id="SVGID_16_" d="M52.8,43.6c13.7,0,25.9,2.5,34.3,6.4c-4.7-3.2-11.7-5.8-20-7.3V31.9l-10.3-5.6v14.9
								c-1.6-0.1-3.3-0.2-5-0.3V19.4l-10.3-5.8V41c-1.7,0.1-3.4,0.2-5,0.4v-36L26.2,0.8v42.4C12.1,46.4,2.5,52.6,2.5,59.8
								c0,4.8,4.3,9.1,11.4,12.4c-4.2-2.9-6.7-6.2-6.7-9.8C7.2,52,27.6,43.6,52.8,43.6z"/>
						</defs>
						<clipPath id="SVGID_17_">
							<use xlink:href="#SVGID_16_"  style="overflow:visible;"/>
						</clipPath>
						<path class="st8" d="M87.9,2.4v40.4v3.7h0.9c-1.7,1.2-3.4,2.3-5.2,3.3c-3.6,2.1-7.5,3.8-11.5,5.3C64,58,55,59.6,45.7,59.6
							c-18.8,0-35.7-6.4-48-16.7H2V0.1h86.1v2.3H87.9z"/>
					</g>
					<g>
						<defs>
							<path id="SVGID_18_" d="M52.8,43.6c13.7,0,25.9,2.5,34.3,6.4c-4.7-3.2-11.7-5.8-20-7.3V31.9l-10.3-5.6v14.9
								c-1.6-0.1-3.3-0.2-5-0.3V19.4l-10.3-5.8V41c-1.7,0.1-3.4,0.2-5,0.4v-36L26.2,0.8v42.4C12.1,46.4,2.5,52.6,2.5,59.8
								c0,4.8,4.3,9.1,11.4,12.4c-4.2-2.9-6.7-6.2-6.7-9.8C7.2,52,27.6,43.6,52.8,43.6z"/>
						</defs>
						<clipPath id="SVGID_19_">
							<use xlink:href="#SVGID_18_"  style="overflow:visible;"/>
						</clipPath>
						<path class="st9" d="M87.9,2.4v39.7h4.9C80.6,52.3,64,58.6,45.5,58.6S10.4,52.3-1.7,42.1h3.5v-42h86.1V2.4z"/>
					</g>
					<g>
						<defs>
							<path id="SVGID_20_" d="M52.8,43.6c13.7,0,25.9,2.5,34.3,6.4c-4.7-3.2-11.7-5.8-20-7.3V31.9l-10.3-5.6v14.9
								c-1.6-0.1-3.3-0.2-5-0.3V19.4l-10.3-5.8V41c-1.7,0.1-3.4,0.2-5,0.4v-36L26.2,0.8v42.4C12.1,46.4,2.5,52.6,2.5,59.8
								c0,4.8,4.3,9.1,11.4,12.4c-4.2-2.9-6.7-6.2-6.7-9.8C7.2,52,27.6,43.6,52.8,43.6z"/>
						</defs>
						<clipPath id="SVGID_21_">
							<use xlink:href="#SVGID_20_"  style="overflow:visible;"/>
						</clipPath>
						<path class="st10" d="M87.9,2.4v39H92c-12,10-28.4,16.2-46.5,16.2S11,51.4-0.9,41.5h2.6V0.1h86.1v2.3H87.9z"/>
					</g>
					<g>
						<defs>
							<path id="SVGID_22_" d="M52.8,43.6c13.7,0,25.9,2.5,34.3,6.4c-4.7-3.2-11.7-5.8-20-7.3V31.9l-10.3-5.6v14.9
								c-1.6-0.1-3.3-0.2-5-0.3V19.4l-10.3-5.8V41c-1.7,0.1-3.4,0.2-5,0.4v-36L26.2,0.8v42.4C12.1,46.4,2.5,52.6,2.5,59.8
								c0,4.8,4.3,9.1,11.4,12.4c-4.2-2.9-6.7-6.2-6.7-9.8C7.2,52,27.6,43.6,52.8,43.6z"/>
						</defs>
						<clipPath id="SVGID_23_">
							<use xlink:href="#SVGID_22_"  style="overflow:visible;"/>
						</clipPath>
						<path class="st11" d="M87.9,2.4v38.3h3.2c-11.7,9.8-27.8,15.9-45.6,15.9s-33.9-6-45.6-15.8h1.8V0.1h86.1v2.3H87.9z"/>
					</g>
					<g>
						<defs>
							<path id="SVGID_24_" d="M52.8,43.6c13.7,0,25.9,2.5,34.3,6.4c-4.7-3.2-11.7-5.8-20-7.3V31.9l-10.3-5.6v14.9
								c-1.6-0.1-3.3-0.2-5-0.3V19.4l-10.3-5.8V41c-1.7,0.1-3.4,0.2-5,0.4v-36L26.2,0.8v42.4C12.1,46.4,2.5,52.6,2.5,59.8
								c0,4.8,4.3,9.1,11.4,12.4c-4.2-2.9-6.7-6.2-6.7-9.8C7.2,52,27.6,43.6,52.8,43.6z"/>
						</defs>
						<clipPath id="SVGID_25_">
							<use xlink:href="#SVGID_24_"  style="overflow:visible;"/>
						</clipPath>
						<path class="st12" d="M87.9,2.4v37.7h2.4C78.8,49.7,63,55.7,45.5,55.7s-33.3-6-44.8-15.6h1v-40h86.1L87.9,2.4L87.9,2.4z"/>
					</g>
					<g>
						<defs>
							<path id="SVGID_26_" d="M52.8,43.6c13.7,0,25.9,2.5,34.3,6.4c-4.7-3.2-11.7-5.8-20-7.3V31.9l-10.3-5.6v14.9
								c-1.6-0.1-3.3-0.2-5-0.3V19.4l-10.3-5.8V41c-1.7,0.1-3.4,0.2-5,0.4v-36L26.2,0.8v42.4C12.1,46.4,2.5,52.6,2.5,59.8
								c0,4.8,4.3,9.1,11.4,12.4c-4.2-2.9-6.7-6.2-6.7-9.8C7.2,52,27.6,43.6,52.8,43.6z"/>
						</defs>
						<clipPath id="SVGID_27_">
							<use xlink:href="#SVGID_26_"  style="overflow:visible;"/>
						</clipPath>
						<path class="st13" d="M87.9,2.4v37h1.6c-11.3,9.5-26.8,15.3-44,15.3s-32.7-5.9-44-15.3h0.2V0.1h86.1v2.3H87.9z"/>
					</g>
					<g>
						<defs>
							<path id="SVGID_28_" d="M52.8,43.6c13.7,0,25.9,2.5,34.3,6.4c-4.7-3.2-11.7-5.8-20-7.3V31.9l-10.3-5.6v14.9
								c-1.6-0.1-3.3-0.2-5-0.3V19.4l-10.3-5.8V41c-1.7,0.1-3.4,0.2-5,0.4v-36L26.2,0.8v42.4C12.1,46.4,2.5,52.6,2.5,59.8
								c0,4.8,4.3,9.1,11.4,12.4c-4.2-2.9-6.7-6.2-6.7-9.8C7.2,52,27.6,43.6,52.8,43.6z"/>
						</defs>
						<clipPath id="SVGID_29_">
							<use xlink:href="#SVGID_28_"  style="overflow:visible;"/>
						</clipPath>
						<path class="st14" d="M87.9,2.4v36.3h0.8c-11,9.3-26.3,15-43.2,15S13.4,48,2.3,38.7c-1.4-1.2-2.7-2.4-3.9-3.6h3.3v-35h86.1
							v2.3H87.9z"/>
					</g>
					<g>
						<defs>
							<path id="SVGID_30_" d="M52.8,43.6c13.7,0,25.9,2.5,34.3,6.4c-4.7-3.2-11.7-5.8-20-7.3V31.9l-10.3-5.6v14.9
								c-1.6-0.1-3.3-0.2-5-0.3V19.4l-10.3-5.8V41c-1.7,0.1-3.4,0.2-5,0.4v-36L26.2,0.8v42.4C12.1,46.4,2.5,52.6,2.5,59.8
								c0,4.8,4.3,9.1,11.4,12.4c-4.2-2.9-6.7-6.2-6.7-9.8C7.2,52,27.6,43.6,52.8,43.6z"/>
						</defs>
						<clipPath id="SVGID_31_">
							<use xlink:href="#SVGID_30_"  style="overflow:visible;"/>
						</clipPath>
						<path class="st15" d="M87.9,2.4V22v12.4h3.9c-1.2,1.2-2.5,2.4-3.9,3.6C77,47.1,62,52.8,45.5,52.8S14,47.1,3.2,38
							c-1.4-1.1-2.6-2.3-3.9-3.6h2.4V0.1h86.1v2.3H87.9z"/>
					</g>
					<g>
						<defs>
							<path id="SVGID_32_" d="M52.8,43.6c13.7,0,25.9,2.5,34.3,6.4c-4.7-3.2-11.7-5.8-20-7.3V31.9l-10.3-5.6v14.9
								c-1.6-0.1-3.3-0.2-5-0.3V19.4l-10.3-5.8V41c-1.7,0.1-3.4,0.2-5,0.4v-36L26.2,0.8v42.4C12.1,46.4,2.5,52.6,2.5,59.8
								c0,4.8,4.3,9.1,11.4,12.4c-4.2-2.9-6.7-6.2-6.7-9.8C7.2,52,27.6,43.6,52.8,43.6z"/>
						</defs>
						<clipPath id="SVGID_33_">
							<use xlink:href="#SVGID_32_"  style="overflow:visible;"/>
						</clipPath>
						<path class="st16" d="M87.9,2.4v19.2v12.2h3c-1.2,1.2-2.5,2.4-3.8,3.5c-10.6,8.9-25.3,14.5-41.5,14.5S14.6,46.3,4,37.3
							c-2.7-2.2-5.1-4.7-7.2-7.3h4.9V0.1h86.1v2.3H87.9z"/>
					</g>
					<g>
						<defs>
							<path id="SVGID_34_" d="M52.8,43.6c13.7,0,25.9,2.5,34.3,6.4c-4.7-3.2-11.7-5.8-20-7.3V31.9l-10.3-5.6v14.9
								c-1.6-0.1-3.3-0.2-5-0.3V19.4l-10.3-5.8V41c-1.7,0.1-3.4,0.2-5,0.4v-36L26.2,0.8v42.4C12.1,46.4,2.5,52.6,2.5,59.8
								c0,4.8,4.3,9.1,11.4,12.4c-4.2-2.9-6.7-6.2-6.7-9.8C7.2,52,27.6,43.6,52.8,43.6z"/>
						</defs>
						<clipPath id="SVGID_35_">
							<use xlink:href="#SVGID_34_"  style="overflow:visible;"/>
						</clipPath>
						<path class="st17" d="M87.9,2.4v18.8v11.9H90c-1.2,1.2-2.4,2.3-3.7,3.4c-10.4,8.8-24.8,14.2-40.7,14.2s-30.4-5.3-40.8-14
							c-2.6-2.2-5-4.6-7-7.2h4V0.1h86.1V2.4z"/>
					</g>
					<g>
						<defs>
							<path id="SVGID_36_" d="M52.8,43.6c13.7,0,25.9,2.5,34.3,6.4c-4.7-3.2-11.7-5.8-20-7.3V31.9l-10.3-5.6v14.9
								c-1.6-0.1-3.3-0.2-5-0.3V19.4l-10.3-5.8V41c-1.7,0.1-3.4,0.2-5,0.4v-36L26.2,0.8v42.4C12.1,46.4,2.5,52.6,2.5,59.8
								c0,4.8,4.3,9.1,11.4,12.4c-4.2-2.9-6.7-6.2-6.7-9.8C7.2,52,27.6,43.6,52.8,43.6z"/>
						</defs>
						<clipPath id="SVGID_37_">
							<use xlink:href="#SVGID_36_"  style="overflow:visible;"/>
						</clipPath>
						<path class="st18" d="M87.9,2.4v18.5V29h4.4c-2,2.5-4.3,4.9-6.9,7c-10.2,8.6-24.3,13.9-39.9,13.9S15.8,44.6,5.6,36
							c-2.6-2.1-4.9-4.5-6.9-7h3V0.1h86.1v2.3H87.9z"/>
					</g>
					<g>
						<defs>
							<path id="SVGID_38_" d="M52.8,43.6c13.7,0,25.9,2.5,34.3,6.4c-4.7-3.2-11.7-5.8-20-7.3V31.9l-10.3-5.6v14.9
								c-1.6-0.1-3.3-0.2-5-0.3V19.4l-10.3-5.8V41c-1.7,0.1-3.4,0.2-5,0.4v-36L26.2,0.8v42.4C12.1,46.4,2.5,52.6,2.5,59.8
								c0,4.8,4.3,9.1,11.4,12.4c-4.2-2.9-6.7-6.2-6.7-9.8C7.2,52,27.6,43.6,52.8,43.6z"/>
						</defs>
						<clipPath id="SVGID_39_">
							<use xlink:href="#SVGID_38_"  style="overflow:visible;"/>
						</clipPath>
						<path class="st19" d="M87.9,2.4v18.1v7.9h3.5c-2,2.5-4.2,4.8-6.7,6.9c-10,8.4-23.8,13.6-39.1,13.6S16.4,43.7,6.4,35.3
							c-2.5-2.1-4.8-4.4-6.7-6.9h2.1V0.1h86.1V2.4z"/>
					</g>
					<g>
						<defs>
							<path id="SVGID_40_" d="M52.8,43.6c13.7,0,25.9,2.5,34.3,6.4c-4.7-3.2-11.7-5.8-20-7.3V31.9l-10.3-5.6v14.9
								c-1.6-0.1-3.3-0.2-5-0.3V19.4l-10.3-5.8V41c-1.7,0.1-3.4,0.2-5,0.4v-36L26.2,0.8v42.4C12.1,46.4,2.5,52.6,2.5,59.8
								c0,4.8,4.3,9.1,11.4,12.4c-4.2-2.9-6.7-6.2-6.7-9.8C7.2,52,27.6,43.6,52.8,43.6z"/>
						</defs>
						<clipPath id="SVGID_41_">
							<use xlink:href="#SVGID_40_"  style="overflow:visible;"/>
						</clipPath>
						<path class="st20" d="M87.9,2.4v17.7v7.7h2.5c-1.9,2.4-4.2,4.7-6.6,6.7C74,42.8,60.5,47.9,45.5,47.9S17,42.8,7.2,34.6
							c-2.4-2.1-4.7-4.3-6.6-6.7h1.1V0.1h86.1v2.3H87.9z"/>
					</g>
					<g>
						<defs>
							<path id="SVGID_42_" d="M52.8,43.6c13.7,0,25.9,2.5,34.3,6.4c-4.7-3.2-11.7-5.8-20-7.3V31.9l-10.3-5.6v14.9
								c-1.6-0.1-3.3-0.2-5-0.3V19.4l-10.3-5.8V41c-1.7,0.1-3.4,0.2-5,0.4v-36L26.2,0.8v42.4C12.1,46.4,2.5,52.6,2.5,59.8
								c0,4.8,4.3,9.1,11.4,12.4c-4.2-2.9-6.7-6.2-6.7-9.8C7.2,52,27.6,43.6,52.8,43.6z"/>
						</defs>
						<clipPath id="SVGID_43_">
							<use xlink:href="#SVGID_42_"  style="overflow:visible;"/>
						</clipPath>
						<path class="st21" d="M87.9,2.4v17.3v7.6h1.6c-1.9,2.4-4.1,4.6-6.5,6.6C73.4,42,60.1,47,45.5,47S17.6,42,8,33.9
							c-4.8-4-8.7-8.8-11.4-14.2h5V0.1h86.1v2.3H87.9z"/>
					</g>
					<g>
						<defs>
							<path id="SVGID_44_" d="M52.8,43.6c13.7,0,25.9,2.5,34.3,6.4c-4.7-3.2-11.7-5.8-20-7.3V31.9l-10.3-5.6v14.9
								c-1.6-0.1-3.3-0.2-5-0.3V19.4l-10.3-5.8V41c-1.7,0.1-3.4,0.2-5,0.4v-36L26.2,0.8v42.4C12.1,46.4,2.5,52.6,2.5,59.8
								c0,4.8,4.3,9.1,11.4,12.4c-4.2-2.9-6.7-6.2-6.7-9.8C7.2,52,27.6,43.6,52.8,43.6z"/>
						</defs>
						<clipPath id="SVGID_45_">
							<use xlink:href="#SVGID_44_"  style="overflow:visible;"/>
						</clipPath>
						<path class="st22" d="M87.9,2.4v17v7.4h0.6c-1.9,2.3-4,4.5-6.3,6.4C72.8,41.1,59.8,46,45.5,46S18.2,41.1,8.9,33.2
							c-4.7-3.9-8.5-8.6-11.1-13.8h4V0.1h86.1C87.9,0.1,87.9,2.4,87.9,2.4z"/>
					</g>
					<g>
						<defs>
							<path id="SVGID_46_" d="M52.8,43.6c13.7,0,25.9,2.5,34.3,6.4c-4.7-3.2-11.7-5.8-20-7.3V31.9l-10.3-5.6v14.9
								c-1.6-0.1-3.3-0.2-5-0.3V19.4l-10.3-5.8V41c-1.7,0.1-3.4,0.2-5,0.4v-36L26.2,0.8v42.4C12.1,46.4,2.5,52.6,2.5,59.8
								c0,4.8,4.3,9.1,11.4,12.4c-4.2-2.9-6.7-6.2-6.7-9.8C7.2,52,27.6,43.6,52.8,43.6z"/>
						</defs>
						<clipPath id="SVGID_47_">
							<use xlink:href="#SVGID_46_"  style="overflow:visible;"/>
						</clipPath>
						<path class="st23" d="M87.9,2.4V19h4.3c-2.6,5.1-6.3,9.7-10.9,13.5C72.2,40.3,59.5,45,45.5,45S18.8,40.3,9.7,32.6
							C5.1,28.7,1.4,24.1-1.2,19h2.9V0.1h86.1v2.3H87.9z"/>
					</g>
					<g>
						<defs>
							<path id="SVGID_48_" d="M52.8,43.6c13.7,0,25.9,2.5,34.3,6.4c-4.7-3.2-11.7-5.8-20-7.3V31.9l-10.3-5.6v14.9
								c-1.6-0.1-3.3-0.2-5-0.3V19.4l-10.3-5.8V41c-1.7,0.1-3.4,0.2-5,0.4v-36L26.2,0.8v42.4C12.1,46.4,2.5,52.6,2.5,59.8
								c0,4.8,4.3,9.1,11.4,12.4c-4.2-2.9-6.7-6.2-6.7-9.8C7.2,52,27.6,43.6,52.8,43.6z"/>
						</defs>
						<clipPath id="SVGID_49_">
							<use xlink:href="#SVGID_48_"  style="overflow:visible;"/>
						</clipPath>
						<path class="st24" d="M87.9,2.4v16.2h3.3c-2.5,5-6.1,9.5-10.6,13.2c-9,7.5-21.3,12.2-35,12.2s-26.1-4.7-35-12.2
							C6,28.1,2.4,23.6-0.1,18.6h1.8V0.1h86.1v2.3H87.9z"/>
					</g>
					<g>
						<defs>
							<path id="SVGID_50_" d="M52.8,43.6c13.7,0,25.9,2.5,34.3,6.4c-4.7-3.2-11.7-5.8-20-7.3V31.9l-10.3-5.6v14.9
								c-1.6-0.1-3.3-0.2-5-0.3V19.4l-10.3-5.8V41c-1.7,0.1-3.4,0.2-5,0.4v-36L26.2,0.8v42.4C12.1,46.4,2.5,52.6,2.5,59.8
								c0,4.8,4.3,9.1,11.4,12.4c-4.2-2.9-6.7-6.2-6.7-9.8C7.2,52,27.6,43.6,52.8,43.6z"/>
						</defs>
						<clipPath id="SVGID_51_">
							<use xlink:href="#SVGID_50_"  style="overflow:visible;"/>
						</clipPath>
						<path class="st25" d="M87.9,2.4v15.8h2.2c-2.4,4.9-6,9.2-10.4,12.9c-8.7,7.4-20.8,12-34.2,12C18.8,43.1-2.9,24.9-2.9,2.4h4.6
							V0.1h86.1v2.3H87.9z"/>
					</g>
					<g>
						<defs>
							<path id="SVGID_52_" d="M52.8,43.6c13.7,0,25.9,2.5,34.3,6.4c-4.7-3.2-11.7-5.8-20-7.3V31.9l-10.3-5.6v14.9
								c-1.6-0.1-3.3-0.2-5-0.3V19.4l-10.3-5.8V41c-1.7,0.1-3.4,0.2-5,0.4v-36L26.2,0.8v42.4C12.1,46.4,2.5,52.6,2.5,59.8
								c0,4.8,4.3,9.1,11.4,12.4c-4.2-2.9-6.7-6.2-6.7-9.8C7.2,52,27.6,43.6,52.8,43.6z"/>
						</defs>
						<clipPath id="SVGID_53_">
							<use xlink:href="#SVGID_52_"  style="overflow:visible;"/>
						</clipPath>
						<path class="st26" d="M92.7,2.4c0,21.9-21.1,39.7-47.2,39.7S-1.7,24.4-1.7,2.4h3.4V0.1h86.1v2.3C87.8,2.4,92.7,2.4,92.7,2.4z"
							/>
					</g>
					<g>
						<defs>
							<path id="SVGID_54_" d="M52.8,43.6c13.7,0,25.9,2.5,34.3,6.4c-4.7-3.2-11.7-5.8-20-7.3V31.9l-10.3-5.6v14.9
								c-1.6-0.1-3.3-0.2-5-0.3V19.4l-10.3-5.8V41c-1.7,0.1-3.4,0.2-5,0.4v-36L26.2,0.8v42.4C12.1,46.4,2.5,52.6,2.5,59.8
								c0,4.8,4.3,9.1,11.4,12.4c-4.2-2.9-6.7-6.2-6.7-9.8C7.2,52,27.6,43.6,52.8,43.6z"/>
						</defs>
						<clipPath id="SVGID_55_">
							<use xlink:href="#SVGID_54_"  style="overflow:visible;"/>
						</clipPath>
						<path class="st27" d="M91.6,2.4c0,21.4-20.6,38.7-46.1,38.7S-0.6,23.8-0.6,2.4h2.3V0.1h86.1v2.3C87.8,2.4,91.6,2.4,91.6,2.4z"
							/>
					</g>
					<g>
						<defs>
							<path id="SVGID_56_" d="M52.8,43.6c13.7,0,25.9,2.5,34.3,6.4c-4.7-3.2-11.7-5.8-20-7.3V31.9l-10.3-5.6v14.9
								c-1.6-0.1-3.3-0.2-5-0.3V19.4l-10.3-5.8V41c-1.7,0.1-3.4,0.2-5,0.4v-36L26.2,0.8v42.4C12.1,46.4,2.5,52.6,2.5,59.8
								c0,4.8,4.3,9.1,11.4,12.4c-4.2-2.9-6.7-6.2-6.7-9.8C7.2,52,27.6,43.6,52.8,43.6z"/>
						</defs>
						<clipPath id="SVGID_57_">
							<use xlink:href="#SVGID_56_"  style="overflow:visible;"/>
						</clipPath>
						<path class="st28" d="M90.4,2.4c0,20.9-20.1,37.8-44.9,37.8S0.6,23.3,0.6,2.4h1.1V0.1h86.1v2.3C87.8,2.4,90.4,2.4,90.4,2.4z"
							/>
					</g>
					<g>
						<defs>
							<path id="SVGID_58_" d="M52.8,43.6c13.7,0,25.9,2.5,34.3,6.4c-4.7-3.2-11.7-5.8-20-7.3V31.9l-10.3-5.6v14.9
								c-1.6-0.1-3.3-0.2-5-0.3V19.4l-10.3-5.8V41c-1.7,0.1-3.4,0.2-5,0.4v-36L26.2,0.8v42.4C12.1,46.4,2.5,52.6,2.5,59.8
								c0,4.8,4.3,9.1,11.4,12.4c-4.2-2.9-6.7-6.2-6.7-9.8C7.2,52,27.6,43.6,52.8,43.6z"/>
						</defs>
						<clipPath id="SVGID_59_">
							<use xlink:href="#SVGID_58_"  style="overflow:visible;"/>
						</clipPath>
						<path class="st29" d="M89.3,2.4c0,20.3-19.6,36.8-43.8,36.8S1.7,22.8,1.7,2.4c0-1.3,0.1-2.5,0.2-3.8V0h85.9v2.3L89.3,2.4
							L89.3,2.4z"/>
					</g>
					<g>
						<defs>
							<path id="SVGID_60_" d="M52.8,43.6c13.7,0,25.9,2.5,34.3,6.4c-4.7-3.2-11.7-5.8-20-7.3V31.9l-10.3-5.6v14.9
								c-1.6-0.1-3.3-0.2-5-0.3V19.4l-10.3-5.8V41c-1.7,0.1-3.4,0.2-5,0.4v-36L26.2,0.8v42.4C12.1,46.4,2.5,52.6,2.5,59.8
								c0,4.8,4.3,9.1,11.4,12.4c-4.2-2.9-6.7-6.2-6.7-9.8C7.2,52,27.6,43.6,52.8,43.6z"/>
						</defs>
						<clipPath id="SVGID_61_">
							<use xlink:href="#SVGID_60_"  style="overflow:visible;"/>
						</clipPath>
						<path class="st30" d="M88.1,2.4c0,19.8-19.1,35.8-42.6,35.8S2.9,22.2,2.9,2.4c0-2.5,0.3-4.9,0.9-7.2v4.9h83.5v-4.9
							C87.8-2.5,88.1,0,88.1,2.4z"/>
					</g>
					<g>
						<defs>
							<path id="SVGID_62_" d="M52.8,43.6c13.7,0,25.9,2.5,34.3,6.4c-4.7-3.2-11.7-5.8-20-7.3V31.9l-10.3-5.6v14.9
								c-1.6-0.1-3.3-0.2-5-0.3V19.4l-10.3-5.8V41c-1.7,0.1-3.4,0.2-5,0.4v-36L26.2,0.8v42.4C12.1,46.4,2.5,52.6,2.5,59.8
								c0,4.8,4.3,9.1,11.4,12.4c-4.2-2.9-6.7-6.2-6.7-9.8C7.2,52,27.6,43.6,52.8,43.6z"/>
						</defs>
						<clipPath id="SVGID_63_">
							<use xlink:href="#SVGID_62_"  style="overflow:visible;"/>
						</clipPath>
						<path class="st31" d="M87,2.4c0,19.2-18.6,34.9-41.5,34.9S4,21.7,4,2.4c0-2.4,0.3-4.8,0.8-7v4.7H86v-4.7C86.7-2.3,87,0,87,2.4
							z"/>
					</g>
					<g>
						<defs>
							<path id="SVGID_64_" d="M52.8,43.6c13.7,0,25.9,2.5,34.3,6.4c-4.7-3.2-11.7-5.8-20-7.3V31.9l-10.3-5.6v14.9
								c-1.6-0.1-3.3-0.2-5-0.3V19.4l-10.3-5.8V41c-1.7,0.1-3.4,0.2-5,0.4v-36L26.2,0.8v42.4C12.1,46.4,2.5,52.6,2.5,59.8
								c0,4.8,4.3,9.1,11.4,12.4c-4.2-2.9-6.7-6.2-6.7-9.8C7.2,52,27.6,43.6,52.8,43.6z"/>
						</defs>
						<clipPath id="SVGID_65_">
							<use xlink:href="#SVGID_64_"  style="overflow:visible;"/>
						</clipPath>
						<path class="st32" d="M85.8,2.4c0,18.7-18,33.9-40.3,33.9S5.2,21.2,5.2,2.4c0-2.3,0.3-4.6,0.8-6.8v4.5h79v-4.5
							C85.5-2.2,85.8,0.1,85.8,2.4z"/>
					</g>
					<g>
						<defs>
							<path id="SVGID_66_" d="M52.8,43.6c13.7,0,25.9,2.5,34.3,6.4c-4.7-3.2-11.7-5.8-20-7.3V31.9l-10.3-5.6v14.9
								c-1.6-0.1-3.3-0.2-5-0.3V19.4l-10.3-5.8V41c-1.7,0.1-3.4,0.2-5,0.4v-36L26.2,0.8v42.4C12.1,46.4,2.5,52.6,2.5,59.8
								c0,4.8,4.3,9.1,11.4,12.4c-4.2-2.9-6.7-6.2-6.7-9.8C7.2,52,27.6,43.6,52.8,43.6z"/>
						</defs>
						<clipPath id="SVGID_67_">
							<use xlink:href="#SVGID_66_"  style="overflow:visible;"/>
						</clipPath>
						<path class="st33" d="M84.7,2.4c0,18.2-17.5,32.9-39.2,32.9S6.4,20.6,6.4,2.4c0-2.3,0.3-4.5,0.8-6.6v4.3h76.7v-4.3
							C84.4-2.1,84.7,0.2,84.7,2.4z"/>
					</g>
					<g>
						<defs>
							<path id="SVGID_68_" d="M52.8,43.6c13.7,0,25.9,2.5,34.3,6.4c-4.7-3.2-11.7-5.8-20-7.3V31.9l-10.3-5.6v14.9
								c-1.6-0.1-3.3-0.2-5-0.3V19.4l-10.3-5.8V41c-1.7,0.1-3.4,0.2-5,0.4v-36L26.2,0.8v42.4C12.1,46.4,2.5,52.6,2.5,59.8
								c0,4.8,4.3,9.1,11.4,12.4c-4.2-2.9-6.7-6.2-6.7-9.8C7.2,52,27.6,43.6,52.8,43.6z"/>
						</defs>
						<clipPath id="SVGID_69_">
							<use xlink:href="#SVGID_68_"  style="overflow:visible;"/>
						</clipPath>
						<path class="st34" d="M83.5,2.4c0,17.6-17,31.9-38,31.9S7.5,20,7.5,2.4C7.5,0.2,7.8-2,8.3-4v4.1h74.5V-4
							C83.2-1.9,83.5,0.2,83.5,2.4z"/>
					</g>
					<g>
						<defs>
							<path id="SVGID_70_" d="M52.8,43.6c13.7,0,25.9,2.5,34.3,6.4c-4.7-3.2-11.7-5.8-20-7.3V31.9l-10.3-5.6v14.9
								c-1.6-0.1-3.3-0.2-5-0.3V19.4l-10.3-5.8V41c-1.7,0.1-3.4,0.2-5,0.4v-36L26.2,0.8v42.4C12.1,46.4,2.5,52.6,2.5,59.8
								c0,4.8,4.3,9.1,11.4,12.4c-4.2-2.9-6.7-6.2-6.7-9.8C7.2,52,27.6,43.6,52.8,43.6z"/>
						</defs>
						<clipPath id="SVGID_71_">
							<use xlink:href="#SVGID_70_"  style="overflow:visible;"/>
						</clipPath>
						<path class="st35" d="M82.4,2.4c0,17.1-16.5,31-36.9,31S8.7,19.5,8.7,2.4c0-2.1,0.3-4.2,0.7-6.2v3.9h72.2v-3.9
							C82.1-1.8,82.4,0.3,82.4,2.4z"/>
					</g>
					<g>
						<defs>
							<path id="SVGID_72_" d="M52.8,43.6c13.7,0,25.9,2.5,34.3,6.4c-4.7-3.2-11.7-5.8-20-7.3V31.9l-10.3-5.6v14.9
								c-1.6-0.1-3.3-0.2-5-0.3V19.4l-10.3-5.8V41c-1.7,0.1-3.4,0.2-5,0.4v-36L26.2,0.8v42.4C12.1,46.4,2.5,52.6,2.5,59.8
								c0,4.8,4.3,9.1,11.4,12.4c-4.2-2.9-6.7-6.2-6.7-9.8C7.2,52,27.6,43.6,52.8,43.6z"/>
						</defs>
						<clipPath id="SVGID_73_">
							<use xlink:href="#SVGID_72_"  style="overflow:visible;"/>
						</clipPath>
						<path class="st36" d="M81.2,2.4c0,16.6-16,30-35.7,30S9.8,19,9.8,2.4c0-2.1,0.2-4.1,0.7-6v3.7h69.9v-3.7
							C81-1.7,81.2,0.4,81.2,2.4z"/>
					</g>
					<g>
						<defs>
							<path id="SVGID_74_" d="M52.8,43.6c13.7,0,25.9,2.5,34.3,6.4c-4.7-3.2-11.7-5.8-20-7.3V31.9l-10.3-5.6v14.9
								c-1.6-0.1-3.3-0.2-5-0.3V19.4l-10.3-5.8V41c-1.7,0.1-3.4,0.2-5,0.4v-36L26.2,0.8v42.4C12.1,46.4,2.5,52.6,2.5,59.8
								c0,4.8,4.3,9.1,11.4,12.4c-4.2-2.9-6.7-6.2-6.7-9.8C7.2,52,27.6,43.6,52.8,43.6z"/>
						</defs>
						<clipPath id="SVGID_75_">
							<use xlink:href="#SVGID_74_"  style="overflow:visible;"/>
						</clipPath>
						<path class="st37" d="M80.1,2.4c0,16-15.5,29-34.5,29S11,18.5,11,2.4c0-2,0.2-4,0.7-5.9V0h67.7v-3.5
							C79.8-1.5,80.1,0.4,80.1,2.4z"/>
					</g>
					<g>
						<defs>
							<path id="SVGID_76_" d="M52.8,43.6c13.7,0,25.9,2.5,34.3,6.4c-4.7-3.2-11.7-5.8-20-7.3V31.9l-10.3-5.6v14.9
								c-1.6-0.1-3.3-0.2-5-0.3V19.4l-10.3-5.8V41c-1.7,0.1-3.4,0.2-5,0.4v-36L26.2,0.8v42.4C12.1,46.4,2.5,52.6,2.5,59.8
								c0,4.8,4.3,9.1,11.4,12.4c-4.2-2.9-6.7-6.2-6.7-9.8C7.2,52,27.6,43.6,52.8,43.6z"/>
						</defs>
						<clipPath id="SVGID_77_">
							<use xlink:href="#SVGID_76_"  style="overflow:visible;"/>
						</clipPath>
						<path class="st38" d="M78.9,2.4c0,15.5-15,28.1-33.4,28.1S12.1,17.9,12.1,2.4c0-1.9,0.2-3.8,0.7-5.7V0h65.4v-3.3
							C78.7-1.4,78.9,0.5,78.9,2.4z"/>
					</g>
					<g>
						<defs>
							<path id="SVGID_78_" d="M52.8,43.6c13.7,0,25.9,2.5,34.3,6.4c-4.7-3.2-11.7-5.8-20-7.3V31.9l-10.3-5.6v14.9
								c-1.6-0.1-3.3-0.2-5-0.3V19.4l-10.3-5.8V41c-1.7,0.1-3.4,0.2-5,0.4v-36L26.2,0.8v42.4C12.1,46.4,2.5,52.6,2.5,59.8
								c0,4.8,4.3,9.1,11.4,12.4c-4.2-2.9-6.7-6.2-6.7-9.8C7.2,52,27.6,43.6,52.8,43.6z"/>
						</defs>
						<clipPath id="SVGID_79_">
							<use xlink:href="#SVGID_78_"  style="overflow:visible;"/>
						</clipPath>
						<path class="st39" d="M77.8,2.4c0,15-14.4,27.1-32.2,27.1S13.3,17.4,13.3,2.4c0-1.9,0.2-3.7,0.7-5.5V0h63.2v-3
							C77.5-1.3,77.8,0.6,77.8,2.4z"/>
					</g>
					<g>
						<defs>
							<path id="SVGID_80_" d="M52.8,43.6c13.7,0,25.9,2.5,34.3,6.4c-4.7-3.2-11.7-5.8-20-7.3V31.9l-10.3-5.6v14.9
								c-1.6-0.1-3.3-0.2-5-0.3V19.4l-10.3-5.8V41c-1.7,0.1-3.4,0.2-5,0.4v-36L26.2,0.8v42.4C12.1,46.4,2.5,52.6,2.5,59.8
								c0,4.8,4.3,9.1,11.4,12.4c-4.2-2.9-6.7-6.2-6.7-9.8C7.2,52,27.6,43.6,52.8,43.6z"/>
						</defs>
						<clipPath id="SVGID_81_">
							<use xlink:href="#SVGID_80_"  style="overflow:visible;"/>
						</clipPath>
						<path class="st40" d="M76.6,2.4c0,14.4-13.9,26.1-31.1,26.1S14.4,16.9,14.4,2.4c0-1.8,0.2-3.6,0.6-5.3V0h61v-2.9
							C76.4-1.1,76.6,0.6,76.6,2.4z"/>
					</g>
					<g>
						<defs>
							<path id="SVGID_82_" d="M52.8,43.6c13.7,0,25.9,2.5,34.3,6.4c-4.7-3.2-11.7-5.8-20-7.3V31.9l-10.3-5.6v14.9
								c-1.6-0.1-3.3-0.2-5-0.3V19.4l-10.3-5.8V41c-1.7,0.1-3.4,0.2-5,0.4v-36L26.2,0.8v42.4C12.1,46.4,2.5,52.6,2.5,59.8
								c0,4.8,4.3,9.1,11.4,12.4c-4.2-2.9-6.7-6.2-6.7-9.8C7.2,52,27.6,43.6,52.8,43.6z"/>
						</defs>
						<clipPath id="SVGID_83_">
							<use xlink:href="#SVGID_82_"  style="overflow:visible;"/>
						</clipPath>
						<path class="st41" d="M75.4,2.4c0,13.9-13.4,25.2-29.9,25.2S15.6,16.3,15.6,2.4c0-1.7,0.2-3.4,0.6-5.1V0h58.7v-2.7
							C75.2-1,75.4,0.7,75.4,2.4z"/>
					</g>
					<g>
						<defs>
							<path id="SVGID_84_" d="M52.8,43.6c13.7,0,25.9,2.5,34.3,6.4c-4.7-3.2-11.7-5.8-20-7.3V31.9l-10.3-5.6v14.9
								c-1.6-0.1-3.3-0.2-5-0.3V19.4l-10.3-5.8V41c-1.7,0.1-3.4,0.2-5,0.4v-36L26.2,0.8v42.4C12.1,46.4,2.5,52.6,2.5,59.8
								c0,4.8,4.3,9.1,11.4,12.4c-4.2-2.9-6.7-6.2-6.7-9.8C7.2,52,27.6,43.6,52.8,43.6z"/>
						</defs>
						<clipPath id="SVGID_85_">
							<use xlink:href="#SVGID_84_"  style="overflow:visible;"/>
						</clipPath>
						<path class="st42" d="M74.3,2.4c0,13.4-12.9,24.2-28.8,24.2S16.7,15.8,16.7,2.4c0-1.7,0.2-3.3,0.6-4.9V0h56.4v-2.5
							C74.1-0.9,74.3,0.8,74.3,2.4z"/>
					</g>
					<g>
						<defs>
							<path id="SVGID_86_" d="M52.8,43.6c13.7,0,25.9,2.5,34.3,6.4c-4.7-3.2-11.7-5.8-20-7.3V31.9l-10.3-5.6v14.9
								c-1.6-0.1-3.3-0.2-5-0.3V19.4l-10.3-5.8V41c-1.7,0.1-3.4,0.2-5,0.4v-36L26.2,0.8v42.4C12.1,46.4,2.5,52.6,2.5,59.8
								c0,4.8,4.3,9.1,11.4,12.4c-4.2-2.9-6.7-6.2-6.7-9.8C7.2,52,27.6,43.6,52.8,43.6z"/>
						</defs>
						<clipPath id="SVGID_87_">
							<use xlink:href="#SVGID_86_"  style="overflow:visible;"/>
						</clipPath>
						<path class="st43" d="M73.1,2.4c0,12.8-12.4,23.2-27.6,23.2S17.9,15.3,17.9,2.4c0-1.6,0.2-3.2,0.6-4.7v2.4h54.2v-2.4
							C73-0.7,73.1,0.8,73.1,2.4z"/>
					</g>
					<g>
						<defs>
							<path id="SVGID_88_" d="M52.8,43.6c13.7,0,25.9,2.5,34.3,6.4c-4.7-3.2-11.7-5.8-20-7.3V31.9l-10.3-5.6v14.9
								c-1.6-0.1-3.3-0.2-5-0.3V19.4l-10.3-5.8V41c-1.7,0.1-3.4,0.2-5,0.4v-36L26.2,0.8v42.4C12.1,46.4,2.5,52.6,2.5,59.8
								c0,4.8,4.3,9.1,11.4,12.4c-4.2-2.9-6.7-6.2-6.7-9.8C7.2,52,27.6,43.6,52.8,43.6z"/>
						</defs>
						<clipPath id="SVGID_89_">
							<use xlink:href="#SVGID_88_"  style="overflow:visible;"/>
						</clipPath>
						<path class="st44" d="M72,2.4c0,12.3-11.9,22.3-26.5,22.3S19,14.7,19,2.4c0-1.5,0.2-3,0.5-4.5v2.2h51.9v-2.2
							C71.8-0.6,72,0.9,72,2.4z"/>
					</g>
					<g>
						<defs>
							<path id="SVGID_90_" d="M52.8,43.6c13.7,0,25.9,2.5,34.3,6.4c-4.7-3.2-11.7-5.8-20-7.3V31.9l-10.3-5.6v14.9
								c-1.6-0.1-3.3-0.2-5-0.3V19.4l-10.3-5.8V41c-1.7,0.1-3.4,0.2-5,0.4v-36L26.2,0.8v42.4C12.1,46.4,2.5,52.6,2.5,59.8
								c0,4.8,4.3,9.1,11.4,12.4c-4.2-2.9-6.7-6.2-6.7-9.8C7.2,52,27.6,43.6,52.8,43.6z"/>
						</defs>
						<clipPath id="SVGID_91_">
							<use xlink:href="#SVGID_90_"  style="overflow:visible;"/>
						</clipPath>
						<path class="st45" d="M70.8,2.4c0,11.8-11.3,21.3-25.3,21.3S20.2,14.2,20.2,2.4c0-1.5,0.2-2.9,0.5-4.3v2h49.6v-2
							C70.7-0.5,70.8,1,70.8,2.4z"/>
					</g>
					<g>
						<defs>
							<path id="SVGID_92_" d="M52.8,43.6c13.7,0,25.9,2.5,34.3,6.4c-4.7-3.2-11.7-5.8-20-7.3V31.9l-10.3-5.6v14.9
								c-1.6-0.1-3.3-0.2-5-0.3V19.4l-10.3-5.8V41c-1.7,0.1-3.4,0.2-5,0.4v-36L26.2,0.8v42.4C12.1,46.4,2.5,52.6,2.5,59.8
								c0,4.8,4.3,9.1,11.4,12.4c-4.2-2.9-6.7-6.2-6.7-9.8C7.2,52,27.6,43.6,52.8,43.6z"/>
						</defs>
						<clipPath id="SVGID_93_">
							<use xlink:href="#SVGID_92_"  style="overflow:visible;"/>
						</clipPath>
						<path class="st46" d="M69.7,2.4c0,11.2-10.8,20.3-24.2,20.3s-24.2-9-24.2-20.3c0-1.4,0.2-2.8,0.5-4.1v1.8h47.4v-1.8
							C69.5-0.3,69.7,1,69.7,2.4z"/>
					</g>
					<g>
						<defs>
							<path id="SVGID_94_" d="M52.8,43.6c13.7,0,25.9,2.5,34.3,6.4c-4.7-3.2-11.7-5.8-20-7.3V31.9l-10.3-5.6v14.9
								c-1.6-0.1-3.3-0.2-5-0.3V19.4l-10.3-5.8V41c-1.7,0.1-3.4,0.2-5,0.4v-36L26.2,0.8v42.4C12.1,46.4,2.5,52.6,2.5,59.8
								c0,4.8,4.3,9.1,11.4,12.4c-4.2-2.9-6.7-6.2-6.7-9.8C7.2,52,27.6,43.6,52.8,43.6z"/>
						</defs>
						<clipPath id="SVGID_95_">
							<use xlink:href="#SVGID_94_"  style="overflow:visible;"/>
						</clipPath>
						<path class="st47" d="M68.5,2.4c0,10.7-10.3,19.4-23,19.4s-23-8.7-23-19.4c0-1.3,0.2-2.6,0.5-3.9v1.6h45.1v-1.6
							C68.4-0.2,68.5,1.1,68.5,2.4z"/>
					</g>
					<g>
						<defs>
							<path id="SVGID_96_" d="M52.8,43.6c13.7,0,25.9,2.5,34.3,6.4c-4.7-3.2-11.7-5.8-20-7.3V31.9l-10.3-5.6v14.9
								c-1.6-0.1-3.3-0.2-5-0.3V19.4l-10.3-5.8V41c-1.7,0.1-3.4,0.2-5,0.4v-36L26.2,0.8v42.4C12.1,46.4,2.5,52.6,2.5,59.8
								c0,4.8,4.3,9.1,11.4,12.4c-4.2-2.9-6.7-6.2-6.7-9.8C7.2,52,27.6,43.6,52.8,43.6z"/>
						</defs>
						<clipPath id="SVGID_97_">
							<use xlink:href="#SVGID_96_"  style="overflow:visible;"/>
						</clipPath>
						<path class="st48" d="M67.4,2.4c0,10.2-9.8,18.4-21.9,18.4S23.6,12.6,23.6,2.4c0-2.5,0.6-5,1.7-7.2V0h40.3v-4.8
							C66.8-2.5,67.4-0.1,67.4,2.4z"/>
					</g>
					<g>
						<defs>
							<path id="SVGID_98_" d="M52.8,43.6c13.7,0,25.9,2.5,34.3,6.4c-4.7-3.2-11.7-5.8-20-7.3V31.9l-10.3-5.6v14.9
								c-1.6-0.1-3.3-0.2-5-0.3V19.4l-10.3-5.8V41c-1.7,0.1-3.4,0.2-5,0.4v-36L26.2,0.8v42.4C12.1,46.4,2.5,52.6,2.5,59.8
								c0,4.8,4.3,9.1,11.4,12.4c-4.2-2.9-6.7-6.2-6.7-9.8C7.2,52,27.6,43.6,52.8,43.6z"/>
						</defs>
						<clipPath id="SVGID_99_">
							<use xlink:href="#SVGID_98_"  style="overflow:visible;"/>
						</clipPath>
						<path class="st49" d="M66.2,2.4c0,9.6-9.3,17.4-20.7,17.4S24.8,12.1,24.8,2.4c0-2.4,0.6-4.7,1.6-6.8v4.5h38.2v-4.5
							C65.7-2.3,66.2,0,66.2,2.4z"/>
					</g>
					<g>
						<defs>
							<path id="SVGID_100_" d="M52.8,43.6c13.7,0,25.9,2.5,34.3,6.4c-4.7-3.2-11.7-5.8-20-7.3V31.9l-10.3-5.6v14.9
								c-1.6-0.1-3.3-0.2-5-0.3V19.4l-10.3-5.8V41c-1.7,0.1-3.4,0.2-5,0.4v-36L26.2,0.8v42.4C12.1,46.4,2.5,52.6,2.5,59.8
								c0,4.8,4.3,9.1,11.4,12.4c-4.2-2.9-6.7-6.2-6.7-9.8C7.2,52,27.6,43.6,52.8,43.6z"/>
						</defs>
						<clipPath id="SVGID_101_">
							<use xlink:href="#SVGID_100_"  style="overflow:visible;"/>
						</clipPath>
						<path class="st50" d="M65.1,2.4c0,9.1-8.8,16.5-19.6,16.5S25.9,11.5,25.9,2.4c0-2.3,0.5-4.4,1.5-6.4v4.1h36.1V-4
							C64.5-2,65.1,0.2,65.1,2.4z"/>
					</g>
					<g>
						<defs>
							<path id="SVGID_102_" d="M52.8,43.6c13.7,0,25.9,2.5,34.3,6.4c-4.7-3.2-11.7-5.8-20-7.3V31.9l-10.3-5.6v14.9
								c-1.6-0.1-3.3-0.2-5-0.3V19.4l-10.3-5.8V41c-1.7,0.1-3.4,0.2-5,0.4v-36L26.2,0.8v42.4C12.1,46.4,2.5,52.6,2.5,59.8
								c0,4.8,4.3,9.1,11.4,12.4c-4.2-2.9-6.7-6.2-6.7-9.8C7.2,52,27.6,43.6,52.8,43.6z"/>
						</defs>
						<clipPath id="SVGID_103_">
							<use xlink:href="#SVGID_102_"  style="overflow:visible;"/>
						</clipPath>
						<path class="st51" d="M63.9,2.4c0,8.6-8.2,15.5-18.4,15.5S27.1,11,27.1,2.4c0-2.1,0.5-4.2,1.4-6v3.7h34v-3.7
							C63.4-1.7,63.9,0.3,63.9,2.4z"/>
					</g>
					<g>
						<defs>
							<path id="SVGID_104_" d="M52.8,43.6c13.7,0,25.9,2.5,34.3,6.4c-4.7-3.2-11.7-5.8-20-7.3V31.9l-10.3-5.6v14.9
								c-1.6-0.1-3.3-0.2-5-0.3V19.4l-10.3-5.8V41c-1.7,0.1-3.4,0.2-5,0.4v-36L26.2,0.8v42.4C12.1,46.4,2.5,52.6,2.5,59.8
								c0,4.8,4.3,9.1,11.4,12.4c-4.2-2.9-6.7-6.2-6.7-9.8C7.2,52,27.6,43.6,52.8,43.6z"/>
						</defs>
						<clipPath id="SVGID_105_">
							<use xlink:href="#SVGID_104_"  style="overflow:visible;"/>
						</clipPath>
						<path class="st52" d="M62.8,2.4c0,8-7.7,14.5-17.3,14.5S28.2,10.5,28.2,2.4c0-2,0.5-3.9,1.4-5.7V0h31.8v-3.3
							C62.3-1.5,62.8,0.4,62.8,2.4z"/>
					</g>
					<g>
						<defs>
							<path id="SVGID_106_" d="M52.8,43.6c13.7,0,25.9,2.5,34.3,6.4c-4.7-3.2-11.7-5.8-20-7.3V31.9l-10.3-5.6v14.9
								c-1.6-0.1-3.3-0.2-5-0.3V19.4l-10.3-5.8V41c-1.7,0.1-3.4,0.2-5,0.4v-36L26.2,0.8v42.4C12.1,46.4,2.5,52.6,2.5,59.8
								c0,4.8,4.3,9.1,11.4,12.4c-4.2-2.9-6.7-6.2-6.7-9.8C7.2,52,27.6,43.6,52.8,43.6z"/>
						</defs>
						<clipPath id="SVGID_107_">
							<use xlink:href="#SVGID_106_"  style="overflow:visible;"/>
						</clipPath>
						<path class="st53" d="M61.6,2.4c0,7.5-7.2,13.6-16.1,13.6S29.4,9.9,29.4,2.4c0-1.9,0.5-3.7,1.3-5.3V0h29.7v-2.9
							C61.2-1.2,61.6,0.6,61.6,2.4z"/>
					</g>
					<g>
						<defs>
							<path id="SVGID_108_" d="M52.8,43.6c13.7,0,25.9,2.5,34.3,6.4c-4.7-3.2-11.7-5.8-20-7.3V31.9l-10.3-5.6v14.9
								c-1.6-0.1-3.3-0.2-5-0.3V19.4l-10.3-5.8V41c-1.7,0.1-3.4,0.2-5,0.4v-36L26.2,0.8v42.4C12.1,46.4,2.5,52.6,2.5,59.8
								c0,4.8,4.3,9.1,11.4,12.4c-4.2-2.9-6.7-6.2-6.7-9.8C7.2,52,27.6,43.6,52.8,43.6z"/>
						</defs>
						<clipPath id="SVGID_109_">
							<use xlink:href="#SVGID_108_"  style="overflow:visible;"/>
						</clipPath>
						<path class="st54" d="M60.5,2.4c0,7-6.7,12.6-15,12.6s-15-5.6-15-12.6c0-1.7,0.4-3.4,1.2-4.9v2.6h27.6v-2.6
							C60.1-1,60.5,0.7,60.5,2.4z"/>
					</g>
					<g>
						<defs>
							<path id="SVGID_110_" d="M52.8,43.6c13.7,0,25.9,2.5,34.3,6.4c-4.7-3.2-11.7-5.8-20-7.3V31.9l-10.3-5.6v14.9
								c-1.6-0.1-3.3-0.2-5-0.3V19.4l-10.3-5.8V41c-1.7,0.1-3.4,0.2-5,0.4v-36L26.2,0.8v42.4C12.1,46.4,2.5,52.6,2.5,59.8
								c0,4.8,4.3,9.1,11.4,12.4c-4.2-2.9-6.7-6.2-6.7-9.8C7.2,52,27.6,43.6,52.8,43.6z"/>
						</defs>
						<clipPath id="SVGID_111_">
							<use xlink:href="#SVGID_110_"  style="overflow:visible;"/>
						</clipPath>
						<path class="st55" d="M59.3,2.4c0,6.4-6.2,11.6-13.8,11.6S31.7,8.9,31.7,2.4c0-1.6,0.4-3.1,1.1-4.5v2.2h25.5v-2.2
							C58.9-0.7,59.3,0.8,59.3,2.4z"/>
					</g>
					<g>
						<defs>
							<path id="SVGID_112_" d="M52.8,43.6c13.7,0,25.9,2.5,34.3,6.4c-4.7-3.2-11.7-5.8-20-7.3V31.9l-10.3-5.6v14.9
								c-1.6-0.1-3.3-0.2-5-0.3V19.4l-10.3-5.8V41c-1.7,0.1-3.4,0.2-5,0.4v-36L26.2,0.8v42.4C12.1,46.4,2.5,52.6,2.5,59.8
								c0,4.8,4.3,9.1,11.4,12.4c-4.2-2.9-6.7-6.2-6.7-9.8C7.2,52,27.6,43.6,52.8,43.6z"/>
						</defs>
						<clipPath id="SVGID_113_">
							<use xlink:href="#SVGID_112_"  style="overflow:visible;"/>
						</clipPath>
						<path class="st56" d="M58.2,2.4c0,5.9-5.7,10.6-12.7,10.6S32.8,8.3,32.8,2.4c0-1.5,0.4-2.9,1-4.1v1.8h23.3v-1.8
							C57.8-0.4,58.2,1,58.2,2.4z"/>
					</g>
					<g>
						<defs>
							<path id="SVGID_114_" d="M52.8,43.6c13.7,0,25.9,2.5,34.3,6.4c-4.7-3.2-11.7-5.8-20-7.3V31.9l-10.3-5.6v14.9
								c-1.6-0.1-3.3-0.2-5-0.3V19.4l-10.3-5.8V41c-1.7,0.1-3.4,0.2-5,0.4v-36L26.2,0.8v42.4C12.1,46.4,2.5,52.6,2.5,59.8
								c0,4.8,4.3,9.1,11.4,12.4c-4.2-2.9-6.7-6.2-6.7-9.8C7.2,52,27.6,43.6,52.8,43.6z"/>
						</defs>
						<clipPath id="SVGID_115_">
							<use xlink:href="#SVGID_114_"  style="overflow:visible;"/>
						</clipPath>
						<path class="st57" d="M57,2.4c0,5.3-5.2,9.7-11.5,9.7S34,7.8,34,2.4c0-2.7,1.3-5.1,3.4-6.8v4.5h16.3v-4.5
							C55.7-2.7,57-0.2,57,2.4z"/>
					</g>
					<g>
						<defs>
							<path id="SVGID_116_" d="M52.8,43.6c13.7,0,25.9,2.5,34.3,6.4c-4.7-3.2-11.7-5.8-20-7.3V31.9l-10.3-5.6v14.9
								c-1.6-0.1-3.3-0.2-5-0.3V19.4l-10.3-5.8V41c-1.7,0.1-3.4,0.2-5,0.4v-36L26.2,0.8v42.4C12.1,46.4,2.5,52.6,2.5,59.8
								c0,4.8,4.3,9.1,11.4,12.4c-4.2-2.9-6.7-6.2-6.7-9.8C7.2,52,27.6,43.6,52.8,43.6z"/>
						</defs>
						<clipPath id="SVGID_117_">
							<use xlink:href="#SVGID_116_"  style="overflow:visible;"/>
						</clipPath>
						<path class="st58" d="M55.9,2.4c0,4.8-4.6,8.7-10.4,8.7S35.1,7.2,35.1,2.4c0-2.4,1.2-4.6,3-6.2V0h14.7v-3.8
							C54.7-2.1,55.9,0,55.9,2.4z"/>
					</g>
					<g>
						<defs>
							<path id="SVGID_118_" d="M52.8,43.6c13.7,0,25.9,2.5,34.3,6.4c-4.7-3.2-11.7-5.8-20-7.3V31.9l-10.3-5.6v14.9
								c-1.6-0.1-3.3-0.2-5-0.3V19.4l-10.3-5.8V41c-1.7,0.1-3.4,0.2-5,0.4v-36L26.2,0.8v42.4C12.1,46.4,2.5,52.6,2.5,59.8
								c0,4.8,4.3,9.1,11.4,12.4c-4.2-2.9-6.7-6.2-6.7-9.8C7.2,52,27.6,43.6,52.8,43.6z"/>
						</defs>
						<clipPath id="SVGID_119_">
							<use xlink:href="#SVGID_118_"  style="overflow:visible;"/>
						</clipPath>
						<path class="st59" d="M54.7,2.4c0,4.3-4.1,7.7-9.2,7.7s-9.2-3.5-9.2-7.7c0-2.1,1-4.1,2.7-5.5V0h13v-3
							C53.7-1.6,54.7,0.3,54.7,2.4z"/>
					</g>
					<g>
						<defs>
							<path id="SVGID_120_" d="M52.8,43.6c13.7,0,25.9,2.5,34.3,6.4c-4.7-3.2-11.7-5.8-20-7.3V31.9l-10.3-5.6v14.9
								c-1.6-0.1-3.3-0.2-5-0.3V19.4l-10.3-5.8V41c-1.7,0.1-3.4,0.2-5,0.4v-36L26.2,0.8v42.4C12.1,46.4,2.5,52.6,2.5,59.8
								c0,4.8,4.3,9.1,11.4,12.4c-4.2-2.9-6.7-6.2-6.7-9.8C7.2,52,27.6,43.6,52.8,43.6z"/>
						</defs>
						<clipPath id="SVGID_121_">
							<use xlink:href="#SVGID_120_"  style="overflow:visible;"/>
						</clipPath>
						<ellipse class="st60" cx="45.5" cy="2.4" rx="8.1" ry="6.8"/>
					</g>
					<g>
						<defs>
							<path id="SVGID_122_" d="M52.8,43.6c13.7,0,25.9,2.5,34.3,6.4c-4.7-3.2-11.7-5.8-20-7.3V31.9l-10.3-5.6v14.9
								c-1.6-0.1-3.3-0.2-5-0.3V19.4l-10.3-5.8V41c-1.7,0.1-3.4,0.2-5,0.4v-36L26.2,0.8v42.4C12.1,46.4,2.5,52.6,2.5,59.8
								c0,4.8,4.3,9.1,11.4,12.4c-4.2-2.9-6.7-6.2-6.7-9.8C7.2,52,27.6,43.6,52.8,43.6z"/>
						</defs>
						<clipPath id="SVGID_123_">
							<use xlink:href="#SVGID_122_"  style="overflow:visible;"/>
						</clipPath>
						<ellipse class="st61" cx="45.5" cy="2.4" rx="6.9" ry="5.8"/>
					</g>
					<g>
						<defs>
							<path id="SVGID_124_" d="M52.8,43.6c13.7,0,25.9,2.5,34.3,6.4c-4.7-3.2-11.7-5.8-20-7.3V31.9l-10.3-5.6v14.9
								c-1.6-0.1-3.3-0.2-5-0.3V19.4l-10.3-5.8V41c-1.7,0.1-3.4,0.2-5,0.4v-36L26.2,0.8v42.4C12.1,46.4,2.5,52.6,2.5,59.8
								c0,4.8,4.3,9.1,11.4,12.4c-4.2-2.9-6.7-6.2-6.7-9.8C7.2,52,27.6,43.6,52.8,43.6z"/>
						</defs>
						<clipPath id="SVGID_125_">
							<use xlink:href="#SVGID_124_"  style="overflow:visible;"/>
						</clipPath>
						<ellipse class="st62" cx="45.5" cy="2.4" rx="5.8" ry="4.8"/>
					</g>
					<g>
						<defs>
							<path id="SVGID_126_" d="M52.8,43.6c13.7,0,25.9,2.5,34.3,6.4c-4.7-3.2-11.7-5.8-20-7.3V31.9l-10.3-5.6v14.9
								c-1.6-0.1-3.3-0.2-5-0.3V19.4l-10.3-5.8V41c-1.7,0.1-3.4,0.2-5,0.4v-36L26.2,0.8v42.4C12.1,46.4,2.5,52.6,2.5,59.8
								c0,4.8,4.3,9.1,11.4,12.4c-4.2-2.9-6.7-6.2-6.7-9.8C7.2,52,27.6,43.6,52.8,43.6z"/>
						</defs>
						<clipPath id="SVGID_127_">
							<use xlink:href="#SVGID_126_"  style="overflow:visible;"/>
						</clipPath>
						<ellipse class="st63" cx="45.5" cy="2.4" rx="4.6" ry="3.9"/>
					</g>
					<g>
						<defs>
							<path id="SVGID_128_" d="M52.8,43.6c13.7,0,25.9,2.5,34.3,6.4c-4.7-3.2-11.7-5.8-20-7.3V31.9l-10.3-5.6v14.9
								c-1.6-0.1-3.3-0.2-5-0.3V19.4l-10.3-5.8V41c-1.7,0.1-3.4,0.2-5,0.4v-36L26.2,0.8v42.4C12.1,46.4,2.5,52.6,2.5,59.8
								c0,4.8,4.3,9.1,11.4,12.4c-4.2-2.9-6.7-6.2-6.7-9.8C7.2,52,27.6,43.6,52.8,43.6z"/>
						</defs>
						<clipPath id="SVGID_129_">
							<use xlink:href="#SVGID_128_"  style="overflow:visible;"/>
						</clipPath>
						<ellipse class="st64" cx="45.5" cy="2.4" rx="3.5" ry="2.9"/>
					</g>
					<g>
						<defs>
							<path id="SVGID_130_" d="M52.8,43.6c13.7,0,25.9,2.5,34.3,6.4c-4.7-3.2-11.7-5.8-20-7.3V31.9l-10.3-5.6v14.9
								c-1.6-0.1-3.3-0.2-5-0.3V19.4l-10.3-5.8V41c-1.7,0.1-3.4,0.2-5,0.4v-36L26.2,0.8v42.4C12.1,46.4,2.5,52.6,2.5,59.8
								c0,4.8,4.3,9.1,11.4,12.4c-4.2-2.9-6.7-6.2-6.7-9.8C7.2,52,27.6,43.6,52.8,43.6z"/>
						</defs>
						<clipPath id="SVGID_131_">
							<use xlink:href="#SVGID_130_"  style="overflow:visible;"/>
						</clipPath>
						<ellipse class="st65" cx="45.5" cy="2.4" rx="2.3" ry="1.9"/>
					</g>
					<g>
						<defs>
							<path id="SVGID_132_" d="M52.8,43.6c13.7,0,25.9,2.5,34.3,6.4c-4.7-3.2-11.7-5.8-20-7.3V31.9l-10.3-5.6v14.9
								c-1.6-0.1-3.3-0.2-5-0.3V19.4l-10.3-5.8V41c-1.7,0.1-3.4,0.2-5,0.4v-36L26.2,0.8v42.4C12.1,46.4,2.5,52.6,2.5,59.8
								c0,4.8,4.3,9.1,11.4,12.4c-4.2-2.9-6.7-6.2-6.7-9.8C7.2,52,27.6,43.6,52.8,43.6z"/>
						</defs>
						<clipPath id="SVGID_133_">
							<use xlink:href="#SVGID_132_"  style="overflow:visible;"/>
						</clipPath>
						<ellipse class="st66" cx="45.5" cy="2.4" rx="1.2" ry="1"/>
					</g>
					<g>
						<path class="st67" d="M52.8,43.6c13.7,0,25.9,2.5,34.3,6.4c-4.7-3.2-11.7-5.8-20-7.3V31.9l-10.3-5.6v14.9
							c-1.6-0.1-3.3-0.2-5-0.3V19.4l-10.3-5.8V41c-1.7,0.1-3.4,0.2-5,0.4v-36L26.2,0.8v42.4C12.1,46.4,2.5,52.6,2.5,59.8
							c0,4.8,4.3,9.1,11.4,12.4c-4.2-2.9-6.7-6.2-6.7-9.8C7.2,52,27.6,43.6,52.8,43.6z"/>
					</g>
				</g>
			</g>
		</g>
	</g>
	<text transform="matrix(1 0 0 1 94.1479 49.0898)" class="st68 st69 st70">PSF</text>
	<g>
		<g>
			<path class="st0" d="M25.3,63.6v3.3h-1.6v-10h3.9c0.7,0,1.3,0.1,1.7,0.3c0.4,0.2,0.7,0.6,0.9,1.1c0.2,0.5,0.3,1.2,0.3,2
				c0,1.2-0.2,2-0.6,2.6c-0.4,0.5-1.1,0.8-2,0.8L25.3,63.6L25.3,63.6z M25.3,62.3h2.3c0.4,0,0.7,0,0.9-0.1c0.2-0.1,0.2-0.3,0.2-0.5
				v-2.8c0-0.3-0.1-0.4-0.2-0.5c-0.2-0.1-0.4-0.1-0.9-0.1h-2.3V62.3z"/>
			<path class="st0" d="M33.7,65.7c0.1,0,0.2,0,0.3,0s0.3,0,0.4,0l-0.1,1.1c-0.2,0.1-0.4,0.1-0.6,0.1c-0.2,0-0.3,0-0.5,0
				c-0.4,0-0.7-0.1-0.9-0.3S32,66.1,32,65.7v-9.4l1.6-0.2L33.7,65.7L33.7,65.7z"/>
			<path class="st0" d="M38.4,67c-0.9,0-1.5-0.2-1.9-0.6s-0.6-1-0.6-1.8c0-0.6,0.1-1,0.2-1.3c0.1-0.3,0.3-0.6,0.6-0.8
				s0.8-0.3,1.4-0.3c0.6-0.1,1.4-0.1,2.4-0.1h0.7v1h-2.6c-0.5,0-0.8,0.1-1,0.2c-0.2,0.1-0.3,0.4-0.3,0.7v1.7h2.1
				c0.5,0,0.8-0.1,1-0.2s0.3-0.4,0.3-0.7v-4.7C40.4,60,39.9,60,39.2,60c-0.4,0-0.9,0-1.3,0.1c-0.5,0.1-0.9,0.2-1.4,0.3l-0.2-1.2
				c0.3-0.1,0.6-0.2,0.9-0.3c0.4-0.1,0.7-0.1,1.1-0.2c0.4,0,0.8-0.1,1.1-0.1c0.7,0,1.3,0.1,1.7,0.2c0.4,0.1,0.7,0.4,0.9,0.7
				s0.3,0.8,0.3,1.3v5.9h-0.7l-0.4-0.8C40.5,66.7,39.6,67,38.4,67z"/>
			<path class="st0" d="M44.6,60v-1.1h4.1V60H44.6z M46.9,67c-0.4,0-0.7-0.1-0.9-0.3s-0.3-0.5-0.3-0.9v-8.7l1.6-0.4v8.9
				c0.1,0,0.3,0,0.5,0s0.4,0,0.7,0l-0.1,1.1C48,66.9,47.7,67,47.5,67S47.1,67,46.9,67z"/>
			<path class="st0" d="M51.7,57.5c-0.4,0-0.6-0.1-0.8-0.2c-0.1-0.1-0.2-0.4-0.2-0.8c0-0.4,0.1-0.6,0.2-0.8c0.1-0.1,0.4-0.2,0.8-0.2
				c0.4,0,0.6,0.1,0.8,0.2c0.1,0.1,0.2,0.4,0.2,0.8c0,0.4-0.1,0.6-0.2,0.8C52.4,57.4,52.1,57.5,51.7,57.5z M50.9,59l1.6-0.2v8.1
				h-1.6V59z"/>
			<path class="st0" d="M55.4,66.9v-8h0.7l0.4,0.8c0.4-0.3,0.8-0.6,1.3-0.7s1-0.2,1.7-0.2s1.3,0.1,1.7,0.3s0.6,0.6,0.6,1v6.8h-1.6
				V60h-1.9c-0.5,0-0.9,0.1-1.1,0.2S57,60.6,57,60.9v5.9L55.4,66.9L55.4,66.9z"/>
			<path class="st0" d="M70.9,58.9v8h-0.7l-0.4-0.8c-0.4,0.3-0.9,0.6-1.4,0.7C67.9,67,67.3,67,66.7,67c-0.7,0-1.3-0.1-1.6-0.4
				c-0.3-0.3-0.5-0.7-0.5-1.3v-6.5h1.6v6.9H68c0.5,0,0.9-0.1,1.1-0.2s0.3-0.4,0.3-0.7v-6h1.5V58.9z"/>
			<path class="st0" d="M73.8,66.9v-8h0.7l0.4,0.8c0.4-0.3,0.8-0.6,1.3-0.7c0.5-0.2,1-0.2,1.6-0.2c0.7,0,1.3,0.1,1.7,0.3
				c0.4,0.2,0.6,0.6,0.6,1v6.8h-1.6V60h-1.7c-0.5,0-0.9,0.1-1.1,0.2s-0.3,0.4-0.3,0.7v5.9L73.8,66.9L73.8,66.9z M78.5,66.9v-8
				l1.2,0.8c0.4-0.3,0.8-0.6,1.3-0.7c0.5-0.2,1-0.2,1.6-0.2c0.7,0,1.3,0.1,1.7,0.3c0.4,0.2,0.6,0.6,0.6,1v6.8h-1.6V60h-1.7
				c-0.5,0-0.9,0.1-1.1,0.2c-0.2,0.1-0.3,0.4-0.3,0.7v5.9L78.5,66.9L78.5,66.9z"/>
			<path class="st0" d="M91,65.4c0.4,0.1,0.9,0.2,1.5,0.3c0.6,0.1,1.1,0.1,1.6,0.1c0.3,0,0.5,0,0.8,0s0.6,0,1-0.1v-3l-1.5-0.1
				c-0.7,0-1.3-0.1-1.8-0.2c-0.5-0.1-0.8-0.3-1.1-0.5c-0.3-0.2-0.4-0.5-0.5-0.8s-0.2-0.8-0.2-1.3c0-0.8,0.1-1.4,0.3-1.8
				c0.2-0.5,0.5-0.8,1-1c0.4-0.2,1-0.3,1.8-0.3c1.1,0,2.2,0.1,3.2,0.3L97,58.2c-0.5-0.1-0.9-0.1-1.4-0.2c-0.5,0-1-0.1-1.5-0.1
				c-0.3,0-0.6,0-0.8,0c-0.2,0-0.4,0-0.6,0.1v3l1.8,0.1c0.8,0.1,1.5,0.2,2,0.4s0.8,0.5,1,0.9s0.3,1,0.3,1.7s-0.1,1.3-0.4,1.8
				c-0.2,0.4-0.6,0.7-1.2,0.9S95,67.1,94,67.1c-0.6,0-1.1,0-1.6-0.1s-1.1-0.2-1.6-0.3L91,65.4z"/>
			<path class="st0" d="M99.8,69.7V58.9h0.7l0.9,1.6v9L99.8,69.7z M103.6,67.1c-0.7,0-1.2-0.1-1.7-0.2c-0.4-0.1-0.8-0.3-1-0.6
				c-0.2-0.3-0.4-0.7-0.5-1.3s-0.1-1.3-0.1-2.2s0-1.6,0.1-2.1s0.2-1,0.5-1.3c0.2-0.3,0.6-0.5,1-0.6s1-0.2,1.7-0.2
				c0.6,0,1.1,0.1,1.4,0.2c0.4,0.1,0.7,0.3,0.9,0.6s0.4,0.7,0.4,1.3c0.1,0.5,0.1,1.2,0.1,2.1s0,1.5-0.1,2.1c-0.1,0.5-0.2,1-0.4,1.3
				c-0.2,0.3-0.5,0.5-0.9,0.7C104.7,67,104.2,67.1,103.6,67.1z M101.4,65.8h2.7c0.3,0,0.5,0,0.6-0.1s0.2-0.2,0.2-0.3V60h-2.7
				c-0.3,0-0.5,0-0.6,0.1c-0.1,0-0.2,0.1-0.2,0.3V65.8z"/>
			<path class="st0" d="M111.5,67c-0.6,0-1.1-0.1-1.5-0.2s-0.7-0.3-1-0.7c-0.2-0.3-0.4-0.7-0.5-1.3c-0.1-0.5-0.1-1.2-0.1-2
				c0-1.1,0.1-1.9,0.3-2.5c0.2-0.6,0.6-1,1-1.3c0.5-0.3,1.2-0.4,2-0.4s1.5,0.1,2,0.2s0.8,0.4,1,0.7s0.3,0.8,0.3,1.5
				c0,0.6-0.1,1-0.2,1.3s-0.3,0.6-0.7,0.8c-0.3,0.2-0.8,0.3-1.5,0.3s-1.5,0.1-2.6,0.1h-0.5v-1h2.6c0.5,0,0.9-0.1,1.1-0.2
				c0.2-0.1,0.3-0.4,0.3-0.7V60h-2.1c-0.5,0-0.9,0.1-1,0.2s-0.3,0.4-0.3,0.7v4.6c0.4,0.1,1,0.2,1.7,0.2c0.4,0,0.9,0,1.3-0.1
				s0.9-0.2,1.5-0.3l0.2,1.2c-0.4,0.1-0.9,0.3-1.5,0.4C112.8,67,112.2,67,111.5,67z"/>
			<path class="st0" d="M120,67c-0.6,0-1.1-0.1-1.4-0.2c-0.4-0.1-0.7-0.3-0.9-0.6c-0.2-0.3-0.4-0.7-0.4-1.3
				c-0.1-0.5-0.1-1.2-0.1-2.1c0-0.8,0-1.5,0.1-2.1c0.1-0.5,0.2-1,0.4-1.3c0.2-0.3,0.5-0.5,0.9-0.6s0.8-0.2,1.4-0.2
				c0.3,0,0.6,0,0.9,0s0.6,0.1,0.9,0.1s0.6,0.1,0.8,0.2l-0.2,1.2c-0.4-0.1-0.8-0.1-1.1-0.2s-0.7-0.1-1.1-0.1c-0.5,0-0.9,0.1-1.1,0.3
				s-0.3,0.5-0.3,1v4.3c0.4,0.1,0.9,0.2,1.6,0.2c0.3,0,0.7,0,1-0.1s0.7-0.2,1.2-0.3l0.2,1.2c-0.4,0.1-0.8,0.3-1.3,0.4
				C121,67,120.5,67,120,67z"/>
			<path class="st0" d="M125.6,57.5c-0.4,0-0.6-0.1-0.8-0.2c-0.1-0.1-0.2-0.4-0.2-0.8c0-0.4,0.1-0.6,0.2-0.8s0.4-0.2,0.8-0.2
				s0.6,0.1,0.8,0.2c0.1,0.1,0.2,0.4,0.2,0.8c0,0.4-0.1,0.6-0.2,0.8C126.3,57.4,126,57.5,125.6,57.5z M124.8,59l1.6-0.2v8.1h-1.6V59
				z"/>
			<path class="st0" d="M131.2,67c-0.9,0-1.5-0.2-1.9-0.6s-0.6-1-0.6-1.8c0-0.6,0.1-1,0.2-1.3c0.1-0.3,0.3-0.6,0.6-0.8
				s0.8-0.3,1.4-0.3s1.4-0.1,2.4-0.1h0.7v1h-2.6c-0.5,0-0.8,0.1-1,0.2c-0.2,0.1-0.3,0.4-0.3,0.7v1.7h2.1c0.5,0,0.8-0.1,1-0.2
				s0.3-0.4,0.3-0.7v-4.7c-0.4-0.1-0.9-0.2-1.6-0.2c-0.4,0-0.9,0-1.3,0.1c-0.5,0.1-0.9,0.2-1.4,0.3l-0.2-1.2
				c0.3-0.1,0.6-0.2,0.9-0.3c0.4-0.1,0.7-0.1,1.1-0.2c0.4,0,0.8-0.1,1.1-0.1c0.7,0,1.3,0.1,1.7,0.2c0.4,0.1,0.7,0.4,0.9,0.7
				s0.3,0.8,0.3,1.3v5.9h-0.7l-0.4-0.8C133.3,66.7,132.3,67,131.2,67z"/>
			<path class="st0" d="M139.5,65.7c0.1,0,0.2,0,0.3,0s0.3,0,0.4,0l-0.1,1.1c-0.2,0.1-0.4,0.1-0.6,0.1c-0.2,0-0.3,0-0.5,0
				c-0.4,0-0.7-0.1-0.9-0.3c-0.2-0.2-0.3-0.5-0.3-0.9v-9.4l1.6-0.2v9.6H139.5z"/>
			<path class="st0" d="M143.2,57.5c-0.4,0-0.6-0.1-0.8-0.2c-0.1-0.1-0.2-0.4-0.2-0.8c0-0.4,0.1-0.6,0.2-0.8s0.4-0.2,0.8-0.2
				c0.4,0,0.6,0.1,0.8,0.2c0.1,0.1,0.2,0.4,0.2,0.8c0,0.4-0.1,0.6-0.2,0.8C143.8,57.4,143.6,57.5,143.2,57.5z M142.4,59l1.6-0.2v8.1
				h-1.6V59z"/>
			<path class="st0" d="M146.3,61c0-0.8,0.2-1.4,0.7-1.8s1.3-0.6,2.3-0.6c0.5,0,0.9,0,1.4,0.1c0.4,0.1,0.9,0.1,1.3,0.3l-0.2,1.2
				c-0.3-0.1-0.6-0.1-0.9-0.2s-0.7-0.1-1-0.1s-0.7,0-1,0s-0.6,0.1-0.8,0.1v1.9c0.9,0.1,1.7,0.3,2.3,0.4s1,0.3,1.3,0.5
				s0.5,0.4,0.6,0.7s0.2,0.7,0.2,1.1c0,0.6-0.1,1.1-0.3,1.5s-0.6,0.6-1.1,0.8s-1.1,0.2-2,0.2c-0.5,0-0.9,0-1.4-0.1s-1-0.2-1.5-0.3
				l0.3-1.3c0.8,0.3,1.7,0.5,2.6,0.5c0.3,0,0.6,0,0.8,0s0.5-0.1,0.9-0.2v-1.9c-1-0.1-1.8-0.3-2.4-0.4c-0.6-0.1-1-0.3-1.3-0.5
				s-0.5-0.4-0.6-0.7C146.3,61.8,146.3,61.5,146.3,61z"/>
			<path class="st0" d="M153.9,60v-1.1h4.1V60H153.9z M156.2,67c-0.4,0-0.7-0.1-0.9-0.3s-0.3-0.5-0.3-0.9v-8.7l1.6-0.4v8.9
				c0.1,0,0.3,0,0.5,0s0.4,0,0.7,0l-0.1,1.1c-0.3,0.1-0.6,0.1-0.9,0.1C156.6,67,156.4,67,156.2,67z"/>
			<path class="st0" d="M165.8,62.7v4.2h-1.6v-10h5.4l-0.2,1.3h-3.7v3.2h3.2v1.3H165.8z"/>
			<path class="st0" d="M172.2,57.5c-0.4,0-0.6-0.1-0.8-0.2c-0.1-0.1-0.2-0.4-0.2-0.8c0-0.4,0.1-0.6,0.2-0.8s0.4-0.2,0.8-0.2
				c0.4,0,0.6,0.1,0.8,0.2c0.1,0.1,0.2,0.4,0.2,0.8c0,0.4-0.1,0.6-0.2,0.8C172.9,57.4,172.6,57.5,172.2,57.5z M171.4,59l1.6-0.2v8.1
				h-1.6V59z"/>
			<path class="st0" d="M175.9,66.9v-8h0.7l0.4,0.8c0.4-0.3,0.8-0.6,1.3-0.7c0.5-0.2,1-0.2,1.7-0.2s1.3,0.1,1.7,0.3s0.6,0.6,0.6,1
				v6.8h-1.6V60h-1.9c-0.5,0-0.9,0.1-1.1,0.2c-0.2,0.1-0.3,0.4-0.3,0.7v5.9L175.9,66.9L175.9,66.9z"/>
			<path class="st0" d="M187,67c-0.9,0-1.5-0.2-1.9-0.6s-0.6-1-0.6-1.8c0-0.6,0.1-1,0.2-1.3c0.1-0.3,0.3-0.6,0.6-0.8
				s0.8-0.3,1.4-0.3s1.4-0.1,2.4-0.1h0.7v1h-2.6c-0.5,0-0.8,0.1-1,0.2c-0.2,0.1-0.3,0.4-0.3,0.7v1.7h2.1c0.5,0,0.8-0.1,1-0.2
				s0.3-0.4,0.3-0.7v-4.7c-0.4-0.1-0.9-0.2-1.6-0.2c-0.4,0-0.9,0-1.3,0.1c-0.5,0.1-0.9,0.2-1.4,0.3l-0.2-1.2
				c0.3-0.1,0.6-0.2,0.9-0.3c0.4-0.1,0.7-0.1,1.1-0.2c0.4,0,0.8-0.1,1.1-0.1c0.7,0,1.3,0.1,1.7,0.2c0.4,0.1,0.7,0.4,0.9,0.7
				s0.3,0.8,0.3,1.3v5.9h-0.7l-0.4-0.8C189.1,66.7,188.1,67,187,67z"/>
			<path class="st0" d="M193.8,66.9v-8h0.7l0.4,0.8c0.4-0.3,0.8-0.6,1.3-0.7c0.5-0.2,1-0.2,1.7-0.2s1.3,0.1,1.7,0.3s0.6,0.6,0.6,1
				v6.8h-1.6V60h-1.9c-0.5,0-0.9,0.1-1.1,0.2c-0.2,0.1-0.3,0.4-0.3,0.7v5.9L193.8,66.9L193.8,66.9z"/>
			<path class="st0" d="M205.4,67c-0.6,0-1.1-0.1-1.4-0.2c-0.4-0.1-0.7-0.3-0.9-0.6c-0.2-0.3-0.4-0.7-0.4-1.3
				c-0.1-0.5-0.1-1.2-0.1-2.1c0-0.8,0-1.5,0.1-2.1c0.1-0.5,0.2-1,0.4-1.3s0.5-0.5,0.9-0.6s0.8-0.2,1.4-0.2c0.3,0,0.6,0,0.9,0
				c0.3,0,0.6,0.1,0.9,0.1c0.3,0,0.6,0.1,0.8,0.2l-0.2,1.2c-0.4-0.1-0.8-0.1-1.1-0.2S206,60,205.6,60c-0.5,0-0.9,0.1-1.1,0.3
				c-0.2,0.2-0.3,0.5-0.3,1v4.3c0.4,0.1,0.9,0.2,1.6,0.2c0.3,0,0.7,0,1-0.1s0.7-0.2,1.2-0.3l0.2,1.2c-0.4,0.1-0.8,0.3-1.3,0.4
				C206.4,67,205.9,67,205.4,67z"/>
			<path class="st0" d="M212.9,67c-0.6,0-1.1-0.1-1.5-0.2s-0.7-0.3-1-0.7c-0.2-0.3-0.4-0.7-0.5-1.3c-0.1-0.5-0.1-1.2-0.1-2
				c0-1.1,0.1-1.9,0.3-2.5s0.6-1,1-1.3c0.5-0.3,1.2-0.4,2-0.4s1.5,0.1,2,0.2s0.8,0.4,1,0.7s0.3,0.8,0.3,1.5c0,0.6-0.1,1-0.2,1.3
				c-0.1,0.3-0.3,0.6-0.7,0.8c-0.3,0.2-0.8,0.3-1.5,0.3s-1.5,0.1-2.6,0.1H211v-1h2.6c0.5,0,0.9-0.1,1.1-0.2c0.2-0.1,0.3-0.4,0.3-0.7
				V60h-2.1c-0.5,0-0.9,0.1-1,0.2s-0.3,0.4-0.3,0.7v4.6c0.4,0.1,1,0.2,1.7,0.2c0.4,0,0.9,0,1.3-0.1c0.4-0.1,0.9-0.2,1.5-0.3l0.2,1.2
				c-0.4,0.1-0.9,0.3-1.5,0.4C214.1,67,213.5,67,212.9,67z"/>
		</g>
	</g>
</g>
</svg>
